<?xml version="1.0" encoding="UTF-8" standalone="no"?>
<svg
   xmlns:dc="http://purl.org/dc/elements/1.1/"
   xmlns:cc="http://creativecommons.org/ns#"
   xmlns:rdf="http://www.w3.org/1999/02/22-rdf-syntax-ns#"
   xmlns:svg="http://www.w3.org/2000/svg"
   xmlns="http://www.w3.org/2000/svg"
   xmlns:sodipodi="http://sodipodi.sourceforge.net/DTD/sodipodi-0.dtd"
   xmlns:inkscape="http://www.inkscape.org/namespaces/inkscape"
   width="210mm"
   height="297mm"
   viewBox="0 0 210 297"
   version="1.1"
   id="svg8"
   inkscape:export-filename="/home/jet08013/snap/inkscape/8049/bitmap.png"
   inkscape:export-xdpi="96"
   inkscape:export-ydpi="96"
   inkscape:version="1.0.1 (0767f8302a, 2020-10-17)"
   sodipodi:docname="drawing1.svg">
  <defs
     id="defs2">
    <linearGradient
       id="linearGradient837">
      <stop
         style="stop-color:#f90000;stop-opacity:1;"
         offset="0"
         id="stop841" />
    </linearGradient>
    <linearGradient
       id="linearGradient837-3">
      <stop
         style="stop-color:#f90000;stop-opacity:1;"
         offset="0"
         id="stop835" />
    </linearGradient>
  </defs>
  <sodipodi:namedview
     id="base"
     pagecolor="#ffffff"
     bordercolor="#666666"
     borderopacity="1.0"
     inkscape:pageopacity="0.0"
     inkscape:pageshadow="2"
     inkscape:zoom="1.571121"
     inkscape:cx="263.18787"
     inkscape:cy="425.04012"
     inkscape:document-units="mm"
     inkscape:current-layer="layer1"
     inkscape:document-rotation="0"
     showgrid="false"
     inkscape:window-width="1428"
     inkscape:window-height="1083"
     inkscape:window-x="1166"
     inkscape:window-y="170"
     inkscape:window-maximized="0" />
  <metadata
     id="metadata5">
    <rdf:RDF>
      <cc:Work
         rdf:about="">
        <dc:format>image/svg+xml</dc:format>
        <dc:type
           rdf:resource="http://purl.org/dc/dcmitype/StillImage" />
        <dc:title></dc:title>
      </cc:Work>
    </rdf:RDF>
  </metadata>
  <g
     inkscape:label="Layer 1"
     inkscape:groupmode="layer"
     id="layer1">
    <path
       id="path844"
       style="fill:#f90000;fill-opacity:1;stroke-width:0.999999"
       transform="scale(0.26458333)"
       d="m 151.98438,219.49023 c -0.12946,0.0751 -0.25918,0.14963 -0.38868,0.22461 -0.21817,0.0263 -0.43687,0.0537 -0.65429,0.0996 l -1.49414,1.14649 c -0.43159,0.24898 -0.86141,0.50098 -1.29297,0.75 0.43647,-0.24741 0.62791,-0.3494 0.22851,-0.10156 -3.57106,2.21594 -7.24393,4.26312 -10.82617,6.46093 -2.28547,1.4022 -9.31322,6.11913 -11.04687,7.40039 -2.46488,1.82166 -4.82028,3.78628 -7.23047,5.67969 -13.27172,11.09289 -26.109574,23.05405 -36.171878,37.22461 -1.975525,2.7821 -3.712596,5.72647 -5.56836,8.58984 -10.463924,18.63641 -16.287883,39.40474 -19.470703,60.44922 -0.759341,5.02067 -1.226135,10.08056 -1.839843,15.1211 -1.558326,16.2892 -2.320724,32.68171 -1.875,49.04687 0.26793,9.83758 1.37247,25.28709 2.347656,35.06836 0.569556,5.71279 1.34242,11.40375 2.013672,17.10547 2.770643,20.01865 6.84329,39.95992 14.068359,58.89062 3.998498,10.47663 5.416571,12.57199 10.447266,22.29297 5.642551,9.52241 12.639321,18.03309 21.208981,25.07227 5.71145,4.69138 13.54604,9.73044 19.91407,13.42969 3.44181,1.9994 7.00446,3.78656 10.50586,5.67968 11.8983,5.82924 24.29328,11.4173 37.61914,12.88282 7.39197,0.81293 8.65566,0.24252 15.95312,-0.62696 8.26038,-1.79437 16.06659,-4.96078 23.33594,-9.25976 8.78879,-5.19757 13.6958,-7.83394 20.49023,-14.44531 2.40068,-2.33598 4.52317,-4.93964 6.78516,-7.41016 2.33139,-3.11671 4.81138,-6.12899 6.99414,-9.35156 8.02058,-11.84134 14.67731,-24.81315 19.75781,-38.17578 4.81305,-12.65919 5.85631,-18.214 9.2832,-31.43165 3.8615,-17.6064 6.3104,-35.47579 8.19532,-53.38867 1.03478,-9.83387 2.2847,-24.35533 2.85547,-34.28906 0.30682,-5.34021 0.44263,-10.6888 0.66406,-16.0332 0.59751,-22.35293 -1.2763,-44.84877 -6.9043,-66.53711 -0.87098,-3.35648 -1.96771,-6.64934 -2.95117,-9.97461 -2.73541,-8.07057 -6.07622,-15.97071 -11.08398,-22.92383 -4.60062,-6.38781 -10.63902,-12.29781 -16.15625,-17.89648 -6.85741,-6.58317 -14.00531,-12.89235 -21.65039,-18.55274 -3.75014,-2.77659 -6.24447,-4.3848 -10.08204,-6.95508 -7.55049,-4.81996 -15.69579,-8.57742 -23.5664,-12.82617 -4.87858,-2.88528 -9.91501,-5.43807 -15.10156,-7.71484 -3.41307,-1.45046 -6.92404,-2.6462 -10.53321,-3.49414 -2.34394,-0.55673 -4.72051,-0.88322 -7.125,-0.97657 -2.40556,-0.0317 -4.81117,-0.0676 -7.21679,-0.0957 -0.90421,-0.006 -1.8013,-0.043 -2.69336,0.0508 z m -3.83008,2.22071 c -1.53674,0.87108 -6.72517,3.90954 -5.29883,3.07031 1.75942,-1.0352 3.53067,-2.05007 5.29883,-3.07031 z m 3.27734,-0.23633 c 1.94846,-1.12894 -3.05187,1.74646 -5.86133,3.35937 1.95546,-1.11755 3.91256,-2.23026 5.86133,-3.35937 z m -0.91602,3.60742 c 1.21185,-0.004 2.42338,0.008 3.63477,0.0527 2.37557,0.0993 4.74851,0.28432 7.07617,0.80078 3.63133,0.81634 7.23982,1.75199 10.68555,3.18945 5.22164,2.27593 10.35163,4.74885 15.36133,7.46289 1.57189,0.82676 5.66036,2.98464 7.20508,3.76172 5.62297,2.82868 11.3827,5.41076 16.74804,8.72656 4.06875,2.60235 6.26607,3.93157 10.23438,6.79102 7.71451,5.55887 14.91284,11.8164 21.85547,18.30078 5.64412,5.64217 11.34879,11.29073 16.06445,17.76562 4.98914,6.85041 8.64442,14.50369 11.55664,22.43555 3.02602,9.2901 3.84441,11.04818 5.98438,20.88281 3.91103,17.97385 5.3508,36.38776 5.08007,54.75977 -0.15949,5.30691 -0.22746,10.61656 -0.47851,15.91992 -0.47758,10.08835 -1.57906,24.13798 -2.58985,34.13086 -1.81661,17.95941 -4.30368,35.8695 -8.48632,53.44922 -3.54875,13.04545 -4.78808,19.045 -9.68555,31.5332 -5.30353,13.52361 -12.23187,26.56397 -20.64844,38.41211 -2.32314,3.27035 -4.95452,6.3115 -7.43164,9.4668 -11.83453,12.4797 -2.01509,2.69681 -14.14062,13.35742 -0.41305,0.36321 -0.60432,0.96297 -1.07227,1.25195 -7.11892,4.39627 -14.92168,7.46443 -23.05078,9.37891 -7.21295,0.97036 -8.64428,1.56087 -16.00195,0.92383 -13.47203,-1.16652 -26.11123,-6.4744 -38.17774,-12.23047 -8.7427,-4.67622 -12.51044,-6.3863 -20.72461,-12.01367 -3.23973,-2.21946 -6.41819,-4.54166 -9.42773,-7.06446 C 101.66773,559.4701 94.660834,551.01531 88.847656,541.72266 83.555811,532.05308 82.214326,530.25118 77.988281,519.76953 70.451265,501.07584 66.169555,481.28425 63.1875,461.4082 c -0.700475,-5.67923 -1.521394,-11.34434 -2.101562,-17.03711 -2.854035,-28.00452 -2.99764,-56.30362 0.11914,-84.29101 1.677162,-12.29902 2.083048,-17.35732 4.800781,-29.32813 3.697822,-16.2878 9.347708,-32.11526 17.828125,-46.54883 1.868788,-2.84841 3.625072,-5.77294 5.605469,-8.54492 10.128559,-14.17697 22.967087,-26.18815 36.425777,-37.13672 8.05913,-6.10439 6.39595,-5.09612 14.27344,-10.18554 1.71041,-1.10504 3.61701,-1.93495 5.19141,-3.22266 0.51782,0.0105 1.04489,0.0768 1.55078,0.0117 1.21163,-0.0192 2.42292,-0.0388 3.63476,-0.043 z m -5.51171,0.041 c -0.0568,0.0304 -0.15008,0.0866 -0.21289,0.12109 l 0.14453,-0.11719 c 0.0228,-0.001 0.0455,-0.003 0.0684,-0.004 z"
       inkscape:export-xdpi="96"
       inkscape:export-ydpi="96" />
    <path
       style="fill:#f90000;fill-opacity:1;stroke-width:0.264583"
       id="path846"
       d="m 104.93087,51.687253 c -2.35003,5.349767 -4.80666,10.652562 -7.112148,16.022595 -0.860928,2.005309 -1.69146,4.023532 -2.53719,6.035299 -2.489155,6.19479 -4.606772,12.563623 -5.91344,19.121797 -0.442246,2.219624 -0.785395,4.459947 -1.06076,6.706386 -0.711687,5.80598 -0.616,7.68452 -0.756211,13.49848 0.09325,2.17522 0.12219,4.35417 0.279763,6.52568 0.293804,4.04897 0.830781,7.99301 1.574726,11.98087 0.636677,3.41288 1.426424,6.75004 2.449922,10.06711 0.440984,1.42919 0.977122,2.82726 1.465683,4.24089 1.247254,3.20113 2.730633,6.31836 4.698262,9.14485 0.79651,1.14418 1.911435,2.53538 2.992703,3.45895 0.48645,0.41551 1.04662,0.73603 1.56994,1.10405 0.57911,0.25767 1.13761,0.5678 1.73731,0.77303 1.87887,0.64299 3.95185,0.7896 5.8994,0.39169 2.05961,-0.4208 2.53728,-0.82633 4.43911,-1.78213 1.2637,-0.87842 2.6032,-1.65675 3.79109,-2.63524 0.7891,-0.64999 1.44911,-1.44583 2.11013,-2.2257 2.16831,-2.55819 3.92869,-5.47314 5.35689,-8.50024 0.47616,-1.00925 0.87247,-2.05427 1.30871,-3.0814 2.139,-5.59413 2.86387,-11.40836 3.05855,-17.36174 0.0482,-1.47433 0.0277,-2.95011 0.0415,-4.42517 -0.16663,-7.94371 -1.07195,-15.85635 -2.27361,-23.704561 -0.22203,-1.450176 -0.47179,-2.895975 -0.70768,-4.343963 -1.18678,-6.79241 -2.42583,-13.579409 -3.85242,-20.326165 -0.56017,-2.725737 -1.3125,-5.420021 -2.52922,-7.931668 -0.19209,-0.396518 -0.40847,-0.780799 -0.61271,-1.171197 -1.37612,-2.341962 -3.26731,-4.316047 -5.11453,-6.286865 -1.11777,-1.196112 -2.308,-2.313464 -3.58681,-3.334218 -0.81657,-0.580298 -1.63677,-1.15488 -2.44436,-1.747745 -0.36726,-0.262528 -0.71003,-0.556117 -1.06887,-0.829429 -0.11271,-0.102209 -0.21417,-0.214709 -0.32955,-0.313978 0,0 -2.11551,1.335788 -2.11551,1.335788 v 0 c 0.13005,0.08421 0.2328,0.199038 0.34318,0.306909 0.36985,0.27596 0.74716,0.542631 1.12954,0.801203 0.83647,0.557811 1.64096,1.159068 2.48169,1.710341 1.31188,0.98571 2.55158,2.060083 3.72247,3.210496 1.87811,1.917454 3.70809,3.915791 5.08886,6.231509 0.2055,0.384884 0.42168,0.764257 0.61651,1.15465 1.22998,2.464525 2.08168,5.090607 2.77356,7.750839 1.69583,6.63398 3.04771,13.351092 4.28163,20.084901 1.5775,9.263283 3.04344,18.595033 2.9811,28.020183 -0.0428,1.48704 -0.0492,2.97557 -0.12845,4.46111 -0.31524,5.9119 -1.1699,11.83449 -3.25685,17.39954 -0.43413,1.0214 -0.82731,2.0612 -1.30238,3.06421 -0.95139,2.00864 -2.11324,4.05175 -3.39632,5.86816 -2.02147,2.86173 -1.90328,2.36898 -4.23818,4.84815 -0.2374,0.25206 -0.4427,0.53253 -0.66405,0.7988 -1.85296,0.95094 -2.29519,1.34096 -4.30658,1.76774 -1.91539,0.40641 -3.94606,0.28074 -5.80366,-0.33083 -0.59325,-0.19531 -1.14823,-0.49185 -1.72235,-0.73778 -0.53117,-0.34962 -1.09401,-0.65534 -1.59353,-1.04886 -1.15298,-0.90832 -2.27468,-2.16234 -3.156391,-3.31383 -2.085112,-2.72309 -3.689191,-5.76458 -5.031385,-8.91171 -1.471504,-3.92239 -1.876343,-4.7222 -2.985522,-8.8816 -2.055061,-7.70645 -3.128967,-15.65521 -3.278584,-23.62668 0.117668,-5.91438 -0.0024,-7.56638 0.736836,-13.477172 0.281265,-2.248816 0.637955,-4.490098 1.085646,-6.711778 1.32176,-6.55924 3.428894,-12.934196 5.947262,-19.123247 0.873995,-2.023951 1.715161,-4.062394 2.621986,-6.071849 2.567622,-5.689655 5.417222,-11.248757 8.531762,-16.657775 0,0 -2.23647,1.008314 -2.23647,1.008314 z"
       inkscape:export-xdpi="96"
       inkscape:export-ydpi="96" />
    <text
       xml:space="preserve"
       style="font-style:normal;font-weight:normal;font-size:10.5833px;line-height:1.25;font-family:sans-serif;fill:#000000;fill-opacity:1;stroke:none;stroke-width:0.264583"
       x="35.588909"
       y="78.366142"
       id="text850"
       inkscape:export-xdpi="96"
       inkscape:export-ydpi="96"><tspan
         sodipodi:role="line"
         id="tspan848"
         x="35.588909"
         y="78.366142"
         style="stroke-width:0.264583">a</tspan></text>
    <text
       xml:space="preserve"
       style="font-style:normal;font-weight:normal;font-size:10.5833px;line-height:1.25;font-family:sans-serif;fill:#000000;fill-opacity:1;stroke:none;stroke-width:0.264583"
       x="28.411152"
       y="95.702133"
       id="text854"
       inkscape:export-xdpi="96"
       inkscape:export-ydpi="96"><tspan
         sodipodi:role="line"
         id="tspan852"
         x="28.411152"
         y="95.702133"
         style="stroke-width:0.264583">b</tspan></text>
    <text
       xml:space="preserve"
       style="font-style:normal;font-weight:normal;font-size:10.5833px;line-height:1.25;font-family:sans-serif;fill:#000000;fill-opacity:1;stroke:none;stroke-width:0.264583"
       x="44.01553"
       y="120.66674"
       id="text858"
       inkscape:export-xdpi="96"
       inkscape:export-ydpi="96"><tspan
         sodipodi:role="line"
         id="tspan856"
         x="44.01553"
         y="120.66674"
         style="stroke-width:0.264583">d</tspan></text>
    <text
       xml:space="preserve"
       style="font-style:normal;font-weight:normal;font-size:10.5833px;line-height:1.25;font-family:sans-serif;fill:#000000;fill-opacity:1;stroke:none;stroke-width:0.264583"
       x="32.630177"
       y="129.89578"
       id="text862"
       inkscape:export-xdpi="96"
       inkscape:export-ydpi="96"><tspan
         sodipodi:role="line"
         id="tspan860"
         x="32.630177"
         y="129.89578"
         style="stroke-width:0.264583">c</tspan></text>
    <text
       xml:space="preserve"
       style="font-style:normal;font-weight:normal;font-size:10.5833px;line-height:1.25;font-family:sans-serif;fill:#000000;fill-opacity:1;stroke:none;stroke-width:0.264583"
       x="54.720356"
       y="91.877037"
       id="text866"
       inkscape:export-xdpi="96"
       inkscape:export-ydpi="96"><tspan
         sodipodi:role="line"
         id="tspan864"
         x="54.720356"
         y="91.877037"
         style="stroke-width:0.264583">e</tspan></text>
    <text
       xml:space="preserve"
       style="font-style:normal;font-weight:normal;font-size:10.5833px;line-height:1.25;font-family:sans-serif;fill:#000000;fill-opacity:1;stroke:none;stroke-width:0.264583"
       x="108.42231"
       y="72.251602"
       id="text870"
       inkscape:export-xdpi="96"
       inkscape:export-ydpi="96"><tspan
         sodipodi:role="line"
         id="tspan868"
         x="108.42231"
         y="72.251602"
         style="stroke-width:0.264583">a</tspan></text>
    <text
       xml:space="preserve"
       style="font-style:normal;font-weight:normal;font-size:10.5833px;line-height:1.25;font-family:sans-serif;fill:#000000;fill-opacity:1;stroke:none;stroke-width:0.264583"
       x="100.09798"
       y="94.02034"
       id="text874"
       inkscape:export-xdpi="96"
       inkscape:export-ydpi="96"><tspan
         sodipodi:role="line"
         id="tspan872"
         x="100.09798"
         y="94.02034"
         style="stroke-width:0.264583">b</tspan></text>
    <text
       xml:space="preserve"
       style="font-style:normal;font-weight:normal;font-size:10.5833px;line-height:1.25;font-family:sans-serif;fill:#000000;fill-opacity:1;stroke:none;stroke-width:0.264583"
       x="112.70272"
       y="108.05073"
       id="text878"
       inkscape:export-xdpi="96"
       inkscape:export-ydpi="96"><tspan
         sodipodi:role="line"
         id="tspan876"
         x="112.70272"
         y="108.05073"
         style="stroke-width:0.264583">c</tspan></text>
    <text
       xml:space="preserve"
       style="font-style:normal;font-weight:normal;font-size:10.5833px;line-height:1.25;font-family:sans-serif;fill:#000000;fill-opacity:1;stroke:none;stroke-width:0.264583"
       x="98.850945"
       y="122.39158"
       id="text882"
       inkscape:export-xdpi="96"
       inkscape:export-ydpi="96"><tspan
         sodipodi:role="line"
         id="tspan880"
         x="98.850945"
         y="122.39158"
         style="stroke-width:0.264583">d</tspan></text>
    <text
       xml:space="preserve"
       style="font-style:normal;font-weight:normal;font-size:10.5833px;line-height:1.25;font-family:sans-serif;fill:#000000;fill-opacity:1;stroke:none;stroke-width:0.264583"
       x="109.10917"
       y="137.79089"
       id="text886"
       inkscape:export-xdpi="96"
       inkscape:export-ydpi="96"><tspan
         sodipodi:role="line"
         id="tspan884"
         x="109.10917"
         y="137.79089"
         style="stroke-width:0.264583">e</tspan></text>
    <path
       style="fill:none;stroke:#000000;stroke-width:0.264583px;stroke-linecap:butt;stroke-linejoin:miter;stroke-opacity:1"
       d="m 41.687083,77.495375 c 66.971107,-6.589564 66.971107,-6.589564 0,0 z"
       id="path888"
       inkscape:export-xdpi="96"
       inkscape:export-ydpi="96" />
    <path
       style="fill:#f900d6;fill-opacity:1;stroke-width:0.292029"
       id="path904"
       d="m 40.369908,76.236089 c 3.271794,-2.000941 6.42096,-4.240315 9.605088,-6.407634 2.680371,-1.824431 3.080101,-2.080061 5.778756,-3.875493 3.688136,-2.350661 7.429122,-4.642545 11.350386,-6.476962 0.672862,-0.314773 1.359448,-0.591447 2.039171,-0.88717 3.924156,-1.533363 8.076084,-1.922224 12.205532,-1.93327 0.897457,-0.0025 1.794643,0.03538 2.691964,0.05307 2.807248,0.100411 5.628468,0.342026 8.343326,1.196636 1.577434,0.496562 2.21405,0.820422 3.738685,1.482979 3.037205,1.385067 5.911364,3.163398 8.818494,4.851313 1.04843,0.658114 2.13857,1.236471 3.16997,1.929117 0.24919,0.167344 0.79827,0.581061 1.04143,0.762278 0.62293,0.480435 1.229,0.985324 1.83175,1.49661 0,0 2.12047,-1.506983 2.12047,-1.506983 v 0 c -0.62874,-0.485409 -1.2509,-0.981753 -1.86987,-1.48263 -0.30466,-0.225683 -0.75619,-0.568205 -1.07224,-0.769205 -1.07052,-0.680807 -2.22408,-1.187836 -3.30905,-1.837286 -2.97925,-1.615598 -5.89926,-3.378707 -8.974337,-4.762823 -1.354946,-0.594963 -2.339871,-1.068352 -3.740919,-1.520219 -2.774351,-0.89479 -5.666853,-1.039697 -8.536209,-1.10552 -2.731155,-0.04004 -5.478081,-0.116175 -8.202675,0.166805 -2.256601,0.234371 -4.494928,0.734433 -6.639364,1.558299 -0.697026,0.306297 -1.401408,0.592396 -2.091077,0.918889 -5.053966,2.392579 -9.812874,5.501144 -14.551821,8.571852 -3.730687,2.48416 -7.435021,5.017612 -11.177301,7.479833 -0.07285,0.04792 0.143926,-0.09914 0.215887,-0.14871 -0.26011,0.153425 -0.520218,0.306849 -0.78033,0.460274 0,0 -2.005716,1.785944 -2.005716,1.785944 z"
       inkscape:export-xdpi="96"
       inkscape:export-ydpi="96" />
    <path
       style="fill:#f900d6;fill-opacity:1;stroke-width:0.264583"
       id="path906"
       d="m 35.88441,89.878965 c 1.460074,-2.205585 2.841022,-4.464672 4.414629,-6.593779 0.474326,-0.641765 0.976082,-1.262798 1.464122,-1.894194 2.079472,-2.512425 4.464293,-4.752605 7.281913,-6.419416 0.296785,-0.175567 0.632039,-0.276056 0.950669,-0.40789 0.936035,-0.387294 1.875472,-0.766302 2.813208,-1.149456 3.975346,-1.471591 8.129702,-2.363438 12.31383,-2.987997 2.409542,-0.35967 3.784965,-0.485498 6.193748,-0.747472 5.087879,-0.48881 10.200399,-0.651976 15.308458,-0.756351 1.638287,-0.0073 3.27765,-0.0704 4.91612,-0.05332 1.45329,0.01513 2.905495,0.105097 4.355533,0.194701 2.635891,0.19725 5.27071,0.397947 7.91239,0.498039 1.74369,0.0285 3.48448,0.13521 5.22276,0.269753 0,0 1.95267,-1.404017 1.95267,-1.404017 v 0 c -1.79883,-0.04202 -3.59709,-0.103055 -5.39582,-0.148556 -2.65281,-0.09808 -5.29972,-0.275542 -7.947276,-0.466349 -1.457828,-0.0913 -2.919198,-0.189878 -4.380648,-0.19613 -1.676017,-0.0072 -3.351808,0.09367 -5.026861,0.129463 -5.182989,0.208619 -10.371455,0.395338 -15.535619,0.905486 -6.280647,0.704623 -12.552346,1.49801 -18.523918,3.68857 -0.928084,0.368226 -1.884995,0.670779 -2.78425,1.104675 -1.972932,0.951952 -4.421204,2.29797 -6.260857,3.667212 -1.926823,1.434118 -3.571256,3.195659 -5.110051,5.027554 -0.492006,0.635815 -0.99495,1.26332 -1.47602,1.907448 -1.673847,2.24119 -3.152244,4.629226 -4.927444,6.793256 0,0 2.268714,-0.961226 2.268714,-0.961226 z"
       inkscape:export-xdpi="96"
       inkscape:export-ydpi="96" />
    <path
       style="fill:#f900d6;fill-opacity:1;stroke-width:0.264583"
       id="path908"
       d="m 60.335334,90.641214 c 3.577656,0.179308 7.15078,0.466225 10.724721,0.713486 4.702627,0.320257 9.414671,0.471456 14.125236,0.61903 2.697216,0.0796 5.394333,0.163457 8.09175,0.236148 0.87949,0.03981 1.675381,0.07409 2.545791,-0.07319 0.949249,-0.170762 1.897647,-0.345437 2.853733,-0.473813 0.238397,-0.03041 0.475691,-0.0685 0.71324,-0.104743 0,0 1.977235,-1.484466 1.977235,-1.484466 v 0 c -0.24814,0.04054 -0.49536,0.08572 -0.74234,0.13286 -0.963155,0.134573 -1.914263,0.340958 -2.876815,0.478946 -0.230203,0.04326 -0.554688,0.112025 -0.793668,0.12886 -0.596098,0.04199 -1.200875,-0.0145 -1.797166,0.03136 -2.79663,0.03865 -5.593734,0.04239 -8.390213,-0.0145 -4.729001,-0.108553 -9.459103,-0.258966 -14.179626,-0.569423 -3.42033,-0.254214 -6.858773,-0.466172 -10.237185,-1.084328 0,0 -2.014693,1.463759 -2.014693,1.463759 z"
       inkscape:export-xdpi="96"
       inkscape:export-ydpi="96" />
    <path
       style="fill:#f900d6;fill-opacity:1;stroke-width:0.264583"
       id="path910"
       d="m 50.963451,118.73347 c 1.176777,-0.77855 -0.260906,0.14019 -0.193614,0.10917 0.913397,-0.42096 1.790496,-0.91693 2.695313,-1.35604 1.098285,-0.53299 6.909133,-3.24978 7.838546,-3.69528 1.410411,-0.67605 2.811383,-1.37164 4.217074,-2.05745 6.991956,-3.47181 13.775878,-7.3363 20.520406,-11.26065 3.191997,-1.894228 5.681303,-3.268284 8.946266,-5.253011 1.074277,-0.623205 2.094053,-1.334291 3.088132,-2.077138 0.496501,-0.373274 1.027144,-0.697693 1.542283,-1.043675 -0.643123,0.375372 -1.288574,0.746784 -1.929368,1.12612 -0.05286,0.03129 0.109312,-0.05613 0.165142,-0.08174 0.165391,-0.07586 0.33845,-0.131813 0.496192,-0.224684 0.762264,-0.448797 1.519623,-0.90587 2.279437,-1.358805 0.21222,-0.160279 0.41512,-0.331853 0.61429,-0.507896 0,0 -2.29221,0.929224 -2.29221,0.929224 v 0 c -0.201914,0.168587 -0.406162,0.334431 -0.618668,0.489633 0.646044,-0.369176 1.289699,-0.742564 1.938138,-1.107528 0.0585,-0.03293 -0.10945,0.07823 -0.16794,0.111194 -0.15322,0.08635 -0.337852,0.115639 -0.488998,0.200464 -0.769887,0.432065 -1.529516,0.882158 -2.294276,1.323237 -0.508698,0.336339 -1.014894,0.677474 -1.503368,1.042763 -0.938913,0.704511 -1.893067,1.390258 -2.907966,1.983055 -0.682091,0.420277 -1.384348,0.808654 -2.05181,1.251796 -0.155159,0.103013 0.653878,-0.35669 0.493335,-0.262289 -2.332027,1.371237 -4.689216,2.700099 -6.99879,4.10961 -2.156265,1.32737 -4.372753,2.55934 -6.580876,3.79753 -3.701859,2.0758 -7.429587,4.106 -11.229297,5.9986 -4.462868,2.16835 -3.770413,1.86571 -8.201626,3.88827 -0.430564,0.19653 -5.038352,2.24803 -5.908378,2.6985 -1.106456,0.5729 -2.189052,1.19139 -3.266681,1.81682 -0.179742,0.10432 -0.334423,0.24681 -0.501634,0.37022 0,0 2.300946,-0.96002 2.300946,-0.96002 z"
       inkscape:export-xdpi="96"
       inkscape:export-ydpi="96" />
    <path
       style="fill:#f900d6;fill-opacity:1;stroke-width:0.264583"
       id="path912"
       d="m 37.413612,127.79846 c -0.488421,0.28626 -1.043911,0.48066 -1.46526,0.85876 -0.323455,0.29025 0.768951,-0.4061 1.163606,-0.58807 0.590891,-0.27245 1.185153,-0.53923 1.791764,-0.77463 2.201685,-0.85435 3.646103,-1.28589 6.00766,-1.88125 1.242013,-0.31312 2.498072,-0.56762 3.747109,-0.85143 4.528968,-0.98273 9.113292,-1.77703 13.532318,-3.20658 2.771505,-0.89658 3.124631,-1.13366 5.752637,-2.29873 4.993479,-2.41108 9.548053,-5.57754 13.965018,-8.90007 2.768055,-2.06631 5.185563,-4.53632 7.518857,-7.06928 1.219253,-1.39109 2.492701,-2.72887 3.852138,-3.98312 1.517983,-1.319543 3.072699,-2.595301 4.613897,-3.887147 1.025935,-0.853726 1.932903,-1.823247 2.724994,-2.89441 0.42567,-0.613979 0.77429,-1.277511 1.14195,-1.92701 0.15555,-0.216392 0.0834,-0.110109 0.2177,-0.318051 0,0 -2.27015,0.999453 -2.27015,0.999453 v 0 c -0.126387,0.203227 -0.0617,0.09558 -0.19304,0.323543 -0.342556,0.637588 -0.6667,1.288693 -1.098982,1.87242 -0.769212,1.03075 -1.643107,1.971587 -2.63271,2.796902 -1.542245,1.301046 -3.10171,2.581865 -4.626229,3.903893 -1.333851,1.238217 -2.577671,2.561437 -3.744079,3.959397 -2.250691,2.51799 -4.630327,4.92828 -7.343526,6.95531 -1.740873,1.31404 -3.491277,2.62113 -5.297022,3.84577 -0.687601,0.46632 -1.389533,0.91116 -2.085824,1.3644 -0.265999,0.17315 -0.523634,0.36052 -0.801026,0.51476 -0.852863,0.47421 -1.724998,0.91289 -2.5875,1.36933 -2.655422,1.19801 -2.97987,1.42718 -5.781302,2.35044 -4.449903,1.46654 -9.067935,2.31758 -13.638575,3.30153 -2.454529,0.5274 -4.530312,0.92928 -6.934393,1.60818 -2.769931,0.78221 -5.381696,1.88976 -7.814807,3.43619 0,0 2.284777,-0.8805 2.284777,-0.8805 z"
       inkscape:export-xdpi="96"
       inkscape:export-ydpi="96" />
    <text
       xml:space="preserve"
       style="font-style:normal;font-weight:normal;font-size:10.5833px;line-height:1.25;font-family:sans-serif;fill:#000000;fill-opacity:1;stroke:none;stroke-width:0.264583"
       x="25.811104"
       y="170.11554"
       id="text916"
       inkscape:export-xdpi="96"
       inkscape:export-ydpi="96"><tspan
         sodipodi:role="line"
         id="tspan914"
         x="25.811104"
         y="170.11554"
         style="stroke-width:0.264583">domain</tspan></text>
    <text
       xml:space="preserve"
       style="font-style:normal;font-weight:normal;font-size:10.5833px;line-height:1.25;font-family:sans-serif;fill:#000000;fill-opacity:1;stroke:none;stroke-width:0.264583"
       x="82.388702"
       y="171.65817"
       id="text920"
       inkscape:export-xdpi="96"
       inkscape:export-ydpi="96"><tspan
         sodipodi:role="line"
         id="tspan918"
         x="82.388702"
         y="171.65817"
         style="stroke-width:0.264583">codomain</tspan></text>
    <text
       xml:space="preserve"
       style="font-style:normal;font-weight:normal;font-size:10.5833px;line-height:1.25;font-family:sans-serif;fill:#000000;fill-opacity:1;stroke:none;stroke-width:0.264583"
       x="48.643581"
       y="49.327599"
       id="text924"
       inkscape:export-xdpi="96"
       inkscape:export-ydpi="96"><tspan
         sodipodi:role="line"
         id="tspan922"
         x="48.643581"
         y="49.327599"
         style="stroke-width:0.264583">A function</tspan></text>
  </g>
</svg>
