<?xml version="1.0" encoding="UTF-8" standalone="no"?>
<svg
   xmlns:dc="http://purl.org/dc/elements/1.1/"
   xmlns:cc="http://creativecommons.org/ns#"
   xmlns:rdf="http://www.w3.org/1999/02/22-rdf-syntax-ns#"
   xmlns:svg="http://www.w3.org/2000/svg"
   xmlns="http://www.w3.org/2000/svg"
   xmlns:sodipodi="http://sodipodi.sourceforge.net/DTD/sodipodi-0.dtd"
   xmlns:inkscape="http://www.inkscape.org/namespaces/inkscape"
   width="210mm"
   height="297mm"
   viewBox="0 0 210 297"
   version="1.1"
   id="svg3636"
   inkscape:export-filename="/home/jet08013/GitHub/2020-Fall-2710W-Math/png/RelationNotFunction.png"
   inkscape:export-xdpi="96"
   inkscape:export-ydpi="96"
   inkscape:version="1.0.1 (0767f8302a, 2020-10-17)"
   sodipodi:docname="drawing2.svg">
  <defs
     id="defs3630" />
  <sodipodi:namedview
     id="base"
     pagecolor="#ffffff"
     bordercolor="#666666"
     borderopacity="1.0"
     inkscape:pageopacity="0.0"
     inkscape:pageshadow="2"
     inkscape:zoom="1.7028207"
     inkscape:cx="263.18787"
     inkscape:cy="482.98493"
     inkscape:document-units="mm"
     inkscape:current-layer="layer1"
     inkscape:document-rotation="0"
     showgrid="false"
     inkscape:window-width="1743"
     inkscape:window-height="1083"
     inkscape:window-x="394"
     inkscape:window-y="871"
     inkscape:window-maximized="0" />
  <metadata
     id="metadata3633">
    <rdf:RDF>
      <cc:Work
         rdf:about="">
        <dc:format>image/svg+xml</dc:format>
        <dc:type
           rdf:resource="http://purl.org/dc/dcmitype/StillImage" />
        <dc:title></dc:title>
      </cc:Work>
    </rdf:RDF>
  </metadata>
  <g
     inkscape:label="Layer 1"
     inkscape:groupmode="layer"
     id="layer1">
    <path
       id="path844"
       style="fill:#f90000;fill-opacity:1;stroke-width:0.264583"
       d="m 52.549537,81.36567 c -0.03425,0.01987 -0.06858,0.03959 -0.102839,0.05943 -0.05772,0.007 -0.115588,0.01421 -0.173114,0.02635 l -0.395324,0.303343 c -0.114192,0.06588 -0.227915,0.132551 -0.342099,0.198437 0.115483,-0.06546 0.166135,-0.09244 0.06046,-0.02687 -0.944843,0.586301 -1.916623,1.12795 -2.864424,1.709454 -0.604697,0.370999 -2.464123,1.61902 -2.922818,1.95802 -0.652166,0.481981 -1.275365,1.001787 -1.913061,1.502752 -3.511476,2.934993 -6.908159,6.099717 -9.570476,9.849011 -0.522691,0.736098 -0.982291,1.515129 -1.473296,2.272729 -2.76858,4.930884 -4.309502,10.425834 -5.151623,15.993854 -0.200909,1.32839 -0.324415,2.66715 -0.486792,4.00079 -0.412307,4.30985 -0.614025,8.64704 -0.496094,12.97699 0.07089,2.60286 0.363133,6.69054 0.621151,9.2785 0.150695,1.51151 0.355182,3.01724 0.532784,4.52582 0.733066,5.2966 1.81062,10.57273 3.722253,15.58148 1.057936,2.77194 1.433135,3.32634 2.764173,5.89835 1.492925,2.51947 3.344153,4.77126 5.611543,6.63371 1.511154,1.24126 3.584056,2.57451 5.268931,3.55327 0.910645,0.52901 1.853263,1.00186 2.779675,1.50275 3.148092,1.54232 6.427598,3.02083 9.953399,3.40858 1.955792,0.21508 2.290143,0.0642 4.220929,-0.16589 2.185559,-0.47476 4.250952,-1.31254 6.174301,-2.44997 2.325367,-1.37519 3.62368,-2.07273 5.421373,-3.82199 0.63518,-0.61806 1.196756,-1.30695 1.795241,-1.96061 0.616847,-0.82463 1.273011,-1.62163 1.850533,-2.47426 2.122111,-3.13303 3.883371,-6.56515 5.227587,-10.10068 1.273453,-3.34941 1.549482,-4.81912 2.45618,-8.31629 1.021688,-4.65836 1.669626,-9.38631 2.168345,-14.12576 0.273785,-2.60187 0.604493,-6.44401 0.75551,-9.07231 0.08118,-1.41293 0.117112,-2.82808 0.175699,-4.24212 0.158091,-5.91421 -0.337688,-11.86623 -1.826763,-17.60461 -0.230447,-0.88807 -0.520623,-1.7593 -0.78083,-2.63911 -0.723744,-2.13534 -1.607667,-4.22559 -2.932637,-6.065267 -1.217247,-1.690108 -2.814907,-3.253795 -4.274674,-4.73511 -1.814357,-1.741797 -3.705572,-3.411101 -5.728332,-4.908746 -0.992225,-0.73464 -1.652183,-1.160145 -2.66754,-1.840199 -1.997734,-1.275281 -4.152845,-2.269442 -6.235277,-3.393591 -1.290791,-0.763397 -2.623346,-1.438822 -3.995621,-2.041218 -0.903041,-0.383767 -1.831986,-0.70014 -2.786912,-0.924491 -0.620167,-0.147301 -1.248968,-0.233685 -1.885156,-0.258384 -0.636471,-0.0084 -1.272955,-0.01789 -1.909442,-0.02532 -0.23924,-0.0016 -0.476595,-0.01138 -0.71262,0.01344 z m -1.013376,0.587563 c -0.406595,0.230473 -1.779368,1.034399 -1.401982,0.812353 0.465513,-0.273897 0.934157,-0.542415 1.401982,-0.812353 z m 0.86713,-0.06253 c 0.51553,-0.298699 -0.807474,0.462084 -1.55081,0.888833 0.517382,-0.295685 1.035198,-0.59009 1.55081,-0.888833 z m -0.242364,0.954463 c 0.320636,-0.0011 0.641186,0.0021 0.9617,0.01394 0.628537,0.02627 1.256377,0.07523 1.872238,0.211874 0.960789,0.215989 1.915535,0.463547 2.827218,0.843875 1.381559,0.602173 2.738869,1.256466 4.064352,1.974556 0.415896,0.218747 1.497637,0.789686 1.906344,0.995289 1.487744,0.748421 3.011673,1.431596 4.431252,2.308902 1.076524,0.688538 1.657898,1.040228 2.707847,1.796791 2.04113,1.470784 3.945688,3.126423 5.782593,4.842081 1.49334,1.492825 3.0027,2.987339 4.250385,4.700486 1.320044,1.81251 2.28717,3.83744 3.057695,5.93607 0.800634,2.45801 1.017167,2.92317 1.583367,5.52525 1.034793,4.75558 1.415732,9.62759 1.344102,14.48852 -0.0422,1.40412 -0.06018,2.80897 -0.126606,4.21215 -0.12636,2.66921 -0.417793,6.3865 -0.685231,9.03045 -0.480645,4.75176 -1.138682,9.49047 -2.245339,14.14178 -0.93894,3.4516 -1.266846,5.03899 -2.562635,8.34315 -1.403226,3.57814 -3.236349,7.0284 -5.463233,10.16322 -0.614664,0.86528 -1.310884,1.66992 -1.966288,2.50475 -3.13122,3.30193 -0.533159,0.71354 -3.741373,3.53416 -0.109286,0.0961 -0.159893,0.25478 -0.283704,0.33124 -1.883548,1.16318 -3.948028,1.97496 -6.098853,2.4815 -1.908426,0.25674 -2.287132,0.41298 -4.233849,0.24443 -3.564474,-0.30864 -6.908597,-1.71301 -10.101195,-3.23597 -2.313172,-1.23725 -3.310054,-1.68971 -5.483386,-3.17862 -0.857179,-0.58723 -1.698146,-1.20165 -2.49442,-1.86914 -2.227318,-1.86722 -4.081226,-4.10421 -5.619296,-6.56289 -1.400134,-2.55842 -1.755069,-3.03517 -2.87321,-5.80844 -1.994169,-4.94604 -3.127038,-10.18256 -3.91604,-15.44144 -0.185334,-1.50263 -0.402535,-3.00152 -0.556038,-4.50773 -0.75513,-7.40953 -0.793126,-14.897 0.03152,-22.302 0.443749,-3.25411 0.55114,-4.59246 1.270207,-7.75973 0.978382,-4.30948 2.473248,-8.49716 4.717025,-12.316047 0.49445,-0.753642 0.959133,-1.527424 1.483113,-2.260844 2.679848,-3.75099 6.076709,-6.928948 9.637654,-9.825758 2.132311,-1.615119 1.692262,-1.348348 3.776514,-2.694924 0.452546,-0.292375 0.957001,-0.511955 1.373561,-0.852662 0.137006,0.0028 0.27646,0.02032 0.41031,0.0031 0.320577,-0.0051 0.641065,-0.01027 0.961697,-0.01138 z m -1.458306,0.01085 c -0.01503,0.008 -0.03971,0.02291 -0.05633,0.03204 l 0.03824,-0.03101 c 0.006,-2.65e-4 0.01204,-7.94e-4 0.0181,-0.0011 z" />
    <path
       style="fill:#f90000;fill-opacity:1;stroke-width:0.264583"
       id="path846"
       d="m 117.26788,74.979467 c -2.35004,5.349767 -4.80667,10.652562 -7.11215,16.022595 -0.86093,2.005309 -1.69146,4.023533 -2.53719,6.0353 -2.48916,6.194788 -4.60678,12.563628 -5.91344,19.121798 -0.44225,2.21962 -0.7854,4.45995 -1.06076,6.70639 -0.711692,5.80598 -0.616,7.68451 -0.756216,13.49848 0.09325,2.17522 0.122186,4.35416 0.279766,6.52567 0.2938,4.04898 0.83078,7.99301 1.57473,11.98087 0.63667,3.41289 1.42642,6.75004 2.44992,10.06712 0.44098,1.42919 0.97712,2.82726 1.46568,4.24089 1.24725,3.20113 2.73063,6.31836 4.69826,9.14485 0.79651,1.14418 1.91144,2.53538 2.9927,3.45895 0.48645,0.41551 1.04663,0.73603 1.56994,1.10405 0.57911,0.25767 1.13761,0.5678 1.73731,0.77303 1.87887,0.64299 3.95186,0.7896 5.89941,0.39169 2.0596,-0.4208 2.53728,-0.82633 4.43911,-1.78213 1.2637,-0.87842 2.6032,-1.65675 3.79109,-2.63524 0.7891,-0.64999 1.44911,-1.44583 2.11013,-2.2257 2.16831,-2.55819 3.92869,-5.47314 5.35689,-8.50024 0.47616,-1.00925 0.87247,-2.05427 1.30871,-3.0814 2.139,-5.59413 2.86387,-11.40836 3.05855,-17.36175 0.0482,-1.47433 0.0277,-2.9501 0.0415,-4.42516 -0.16663,-7.94371 -1.07195,-15.85635 -2.27361,-23.70457 -0.22203,-1.45017 -0.47179,-2.89597 -0.70768,-4.34396 -1.18678,-6.79241 -2.42583,-13.57941 -3.85242,-20.326164 -0.56017,-2.725738 -1.3125,-5.420022 -2.52922,-7.931669 -0.19209,-0.396518 -0.40847,-0.780799 -0.61271,-1.171197 -1.37612,-2.341962 -3.26731,-4.316047 -5.11453,-6.286865 -1.11777,-1.196112 -2.30801,-2.313464 -3.58682,-3.334218 -0.81657,-0.580298 -1.63677,-1.15488 -2.44436,-1.747745 -0.36725,-0.262528 -0.71002,-0.556117 -1.06887,-0.829429 -0.11271,-0.102209 -0.21417,-0.214709 -0.32954,-0.313978 0,0 -2.11552,1.335788 -2.11552,1.335788 v 0 c 0.13006,0.08421 0.2328,0.199038 0.34319,0.306909 0.36985,0.27596 0.74715,0.542631 1.12954,0.801203 0.83647,0.557811 1.64095,1.159068 2.48168,1.710341 1.31189,0.98571 2.55158,2.060083 3.72247,3.210496 1.87812,1.917454 3.7081,3.915791 5.08887,6.231509 0.2055,0.384884 0.42168,0.764257 0.61651,1.15465 1.22998,2.464525 2.08168,5.090608 2.77356,7.750839 1.69583,6.63398 3.04771,13.35109 4.28163,20.0849 1.5775,9.26328 3.04344,18.59504 2.9811,28.02018 -0.0428,1.48705 -0.0492,2.97558 -0.12845,4.46112 -0.31524,5.9119 -1.1699,11.83448 -3.25685,17.39954 -0.43413,1.0214 -0.82731,2.0612 -1.30238,3.06421 -0.95139,2.00864 -2.11324,4.05175 -3.39632,5.86816 -2.02147,2.86173 -1.90328,2.36898 -4.23818,4.84815 -0.2374,0.25206 -0.4427,0.53253 -0.66405,0.7988 -1.85297,0.95094 -2.2952,1.34096 -4.30659,1.76774 -1.91538,0.40641 -3.94606,0.28074 -5.80366,-0.33083 -0.59324,-0.19531 -1.14823,-0.49185 -1.72235,-0.73778 -0.53117,-0.34962 -1.09401,-0.65534 -1.59353,-1.04886 -1.15298,-0.90832 -2.27467,-2.16234 -3.15639,-3.31383 -2.08511,-2.72309 -3.68919,-5.76458 -5.03138,-8.91171 -1.4715,-3.92239 -1.87634,-4.7222 -2.98552,-8.88161 -2.05507,-7.70644 -3.12897,-15.65521 -3.27859,-23.62668 0.11767,-5.91437 -0.002,-7.56638 0.73684,-13.47717 0.28126,-2.24881 0.63795,-4.49009 1.08565,-6.71177 1.32175,-6.55925 3.42889,-12.9342 5.94726,-19.123252 0.87399,-2.023952 1.71516,-4.062394 2.62198,-6.07185 2.56762,-5.689655 5.41723,-11.248757 8.53177,-16.657775 0,0 -2.23647,1.008314 -2.23647,1.008314 z" />
    <text
       xml:space="preserve"
       style="font-style:normal;font-weight:normal;font-size:10.5833px;line-height:1.25;font-family:sans-serif;fill:#000000;fill-opacity:1;stroke:none;stroke-width:0.264583"
       x="47.925911"
       y="101.65836"
       id="text850"><tspan
         sodipodi:role="line"
         id="tspan848"
         x="47.925911"
         y="101.65836"
         style="stroke-width:0.264583">a</tspan></text>
    <text
       xml:space="preserve"
       style="font-style:normal;font-weight:normal;font-size:10.5833px;line-height:1.25;font-family:sans-serif;fill:#000000;fill-opacity:1;stroke:none;stroke-width:0.264583"
       x="40.748154"
       y="118.99435"
       id="text854"><tspan
         sodipodi:role="line"
         id="tspan852"
         x="40.748154"
         y="118.99435"
         style="stroke-width:0.264583">b</tspan></text>
    <text
       xml:space="preserve"
       style="font-style:normal;font-weight:normal;font-size:10.5833px;line-height:1.25;font-family:sans-serif;fill:#000000;fill-opacity:1;stroke:none;stroke-width:0.264583"
       x="56.352531"
       y="143.95895"
       id="text858"><tspan
         sodipodi:role="line"
         id="tspan856"
         x="56.352531"
         y="143.95895"
         style="stroke-width:0.264583">d</tspan></text>
    <text
       xml:space="preserve"
       style="font-style:normal;font-weight:normal;font-size:10.5833px;line-height:1.25;font-family:sans-serif;fill:#000000;fill-opacity:1;stroke:none;stroke-width:0.264583"
       x="44.967178"
       y="153.188"
       id="text862"><tspan
         sodipodi:role="line"
         id="tspan860"
         x="44.967178"
         y="153.188"
         style="stroke-width:0.264583">c</tspan></text>
    <text
       xml:space="preserve"
       style="font-style:normal;font-weight:normal;font-size:10.5833px;line-height:1.25;font-family:sans-serif;fill:#000000;fill-opacity:1;stroke:none;stroke-width:0.264583"
       x="67.057358"
       y="115.16925"
       id="text866"><tspan
         sodipodi:role="line"
         id="tspan864"
         x="67.057358"
         y="115.16925"
         style="stroke-width:0.264583">e</tspan></text>
    <text
       xml:space="preserve"
       style="font-style:normal;font-weight:normal;font-size:10.5833px;line-height:1.25;font-family:sans-serif;fill:#000000;fill-opacity:1;stroke:none;stroke-width:0.264583"
       x="120.75932"
       y="95.543816"
       id="text870"><tspan
         sodipodi:role="line"
         id="tspan868"
         x="120.75932"
         y="95.543816"
         style="stroke-width:0.264583">a</tspan></text>
    <text
       xml:space="preserve"
       style="font-style:normal;font-weight:normal;font-size:10.5833px;line-height:1.25;font-family:sans-serif;fill:#000000;fill-opacity:1;stroke:none;stroke-width:0.264583"
       x="112.43498"
       y="117.31255"
       id="text874"><tspan
         sodipodi:role="line"
         id="tspan872"
         x="112.43498"
         y="117.31255"
         style="stroke-width:0.264583">b</tspan></text>
    <text
       xml:space="preserve"
       style="font-style:normal;font-weight:normal;font-size:10.5833px;line-height:1.25;font-family:sans-serif;fill:#000000;fill-opacity:1;stroke:none;stroke-width:0.264583"
       x="125.03972"
       y="131.34294"
       id="text878"><tspan
         sodipodi:role="line"
         id="tspan876"
         x="125.03972"
         y="131.34294"
         style="stroke-width:0.264583">c</tspan></text>
    <text
       xml:space="preserve"
       style="font-style:normal;font-weight:normal;font-size:10.5833px;line-height:1.25;font-family:sans-serif;fill:#000000;fill-opacity:1;stroke:none;stroke-width:0.264583"
       x="111.18795"
       y="145.68379"
       id="text882"><tspan
         sodipodi:role="line"
         id="tspan880"
         x="111.18795"
         y="145.68379"
         style="stroke-width:0.264583">d</tspan></text>
    <text
       xml:space="preserve"
       style="font-style:normal;font-weight:normal;font-size:10.5833px;line-height:1.25;font-family:sans-serif;fill:#000000;fill-opacity:1;stroke:none;stroke-width:0.264583"
       x="121.44617"
       y="161.0831"
       id="text886"><tspan
         sodipodi:role="line"
         id="tspan884"
         x="121.44617"
         y="161.0831"
         style="stroke-width:0.264583">e</tspan></text>
    <path
       style="fill:none;stroke:#000000;stroke-width:0.264583px;stroke-linecap:butt;stroke-linejoin:miter;stroke-opacity:1"
       d="m 54.024087,100.78759 c 66.971103,-6.589564 66.971103,-6.589564 0,0 z"
       id="path888" />
    <path
       style="fill:#f900d6;fill-opacity:1;stroke-width:0.264583"
       id="path908"
       d="m 72.672338,113.93343 c 3.577657,0.17931 7.15078,0.46622 10.724719,0.71349 4.702628,0.32025 9.414672,0.47145 14.125237,0.61902 2.697216,0.0796 5.394336,0.16346 8.091756,0.23615 0.87948,0.0398 1.67538,0.0741 2.54579,-0.0732 0.94925,-0.17076 1.89764,-0.34543 2.85373,-0.47381 0.2384,-0.0304 0.47569,-0.0685 0.71324,-0.10474 0,0 1.97723,-1.48447 1.97723,-1.48447 v 0 c -0.24814,0.0405 -0.49536,0.0857 -0.74233,0.13286 -0.96316,0.13458 -1.91427,0.34096 -2.87682,0.47895 -0.2302,0.0433 -0.55469,0.11202 -0.79367,0.12886 -0.5961,0.042 -1.20087,-0.0145 -1.79716,0.0314 -2.79663,0.0386 -5.59374,0.0424 -8.39022,-0.0145 -4.728998,-0.10855 -9.459102,-0.25897 -14.179624,-0.56942 -3.420329,-0.25422 -6.858772,-0.46618 -10.237187,-1.08433 0,0 -2.014691,1.46376 -2.014691,1.46376 z" />
    <path
       style="fill:#f900d6;fill-opacity:1;stroke-width:0.264583"
       id="path910"
       d="m 63.300456,142.02569 c 1.176776,-0.77856 -0.260909,0.14019 -0.193615,0.10917 0.913398,-0.42096 1.790497,-0.91694 2.695313,-1.35604 1.098283,-0.53299 6.909131,-3.24979 7.838546,-3.69529 1.410409,-0.67605 2.811383,-1.37164 4.217072,-2.05745 6.991959,-3.47181 13.775881,-7.33629 20.520409,-11.26064 3.191999,-1.89423 5.681299,-3.26829 8.946269,-5.25302 1.07427,-0.6232 2.09405,-1.33429 3.08813,-2.07713 0.4965,-0.37328 1.02714,-0.6977 1.54228,-1.04368 -0.64312,0.37537 -1.28857,0.74679 -1.92937,1.12612 -0.0529,0.0313 0.10931,-0.0561 0.16514,-0.0817 0.1654,-0.0759 0.33846,-0.13181 0.4962,-0.22468 0.76226,-0.4488 1.51962,-0.90587 2.27943,-1.35881 0.21222,-0.16028 0.41512,-0.33185 0.6143,-0.50789 0,0 -2.29221,0.92922 -2.29221,0.92922 v 0 c -0.20192,0.16859 -0.40617,0.33443 -0.61867,0.48963 0.64604,-0.36917 1.2897,-0.74256 1.93813,-1.10752 0.0585,-0.0329 -0.10945,0.0782 -0.16793,0.11119 -0.15322,0.0864 -0.33786,0.11564 -0.489,0.20046 -0.76989,0.43207 -1.52952,0.88216 -2.29428,1.32324 -0.5087,0.33634 -1.01489,0.67747 -1.50337,1.04276 -0.93891,0.70451 -1.89306,1.39026 -2.90796,1.98306 -0.6821,0.42028 -1.38435,0.80865 -2.05181,1.25179 -0.15516,0.10302 0.65387,-0.35669 0.49333,-0.26228 -2.33202,1.37123 -4.689214,2.70009 -6.998789,4.10961 -2.156266,1.32737 -4.372752,2.55934 -6.580878,3.79753 -3.701856,2.0758 -7.429584,4.106 -11.229295,5.9986 -4.46287,2.16835 -3.770413,1.86571 -8.201628,3.88826 -0.430562,0.19653 -5.038352,2.24804 -5.908376,2.69851 -1.106456,0.5729 -2.189054,1.19139 -3.266681,1.81682 -0.179742,0.10432 -0.334422,0.24681 -0.501634,0.37022 0,0 2.300947,-0.96002 2.300947,-0.96002 z" />
    <path
       style="fill:#f900d6;fill-opacity:1;stroke-width:0.264583"
       id="path912"
       d="m 49.750615,151.09068 c -0.488421,0.28625 -1.043911,0.48065 -1.46526,0.85875 -0.323455,0.29026 0.768951,-0.40609 1.163606,-0.58806 0.590891,-0.27246 1.185153,-0.53924 1.791764,-0.77463 2.201686,-0.85436 3.646102,-1.2859 6.007659,-1.88126 1.242015,-0.31311 2.498074,-0.56761 3.747111,-0.85143 4.528969,-0.98272 9.11329,-1.77702 13.532316,-3.20658 2.771505,-0.89658 3.124631,-1.13366 5.75264,-2.29872 4.993478,-2.41108 9.548053,-5.57755 13.965018,-8.90007 2.768055,-2.06632 5.18556,-4.53633 7.518851,-7.06929 1.21926,-1.39108 2.49271,-2.72887 3.85214,-3.98311 1.51799,-1.31955 3.0727,-2.59531 4.6139,-3.88715 1.02594,-0.85373 1.9329,-1.82325 2.725,-2.89441 0.42566,-0.61398 0.77429,-1.27751 1.14194,-1.92701 0.15555,-0.21639 0.0834,-0.11011 0.2177,-0.31805 0,0 -2.27014,0.99945 -2.27014,0.99945 v 0 c -0.12639,0.20323 -0.0617,0.0956 -0.19304,0.32354 -0.34256,0.63759 -0.6667,1.2887 -1.09899,1.87242 -0.76921,1.03075 -1.6431,1.97159 -2.63271,2.79691 -1.54224,1.30104 -3.10171,2.58186 -4.62623,3.90389 -1.33385,1.23821 -2.57767,2.56143 -3.744077,3.9594 -2.250689,2.51798 -4.630325,4.92828 -7.343527,6.95531 -1.740871,1.31404 -3.491275,2.62113 -5.297021,3.84577 -0.6876,0.46632 -1.389531,0.91115 -2.085825,1.3644 -0.265998,0.17314 -0.523631,0.36051 -0.801026,0.51476 -0.85286,0.47421 -1.724996,0.91289 -2.587498,1.36933 -2.655421,1.19801 -2.979869,1.42717 -5.781302,2.35044 -4.449902,1.46654 -9.067935,2.31758 -13.638575,3.30152 -2.454529,0.52741 -4.530312,0.92928 -6.934393,1.60818 -2.769932,0.78222 -5.381697,1.88976 -7.814808,3.4362 0,0 2.284777,-0.8805 2.284777,-0.8805 z" />
    <text
       xml:space="preserve"
       style="font-style:normal;font-weight:normal;font-size:10.5833px;line-height:1.25;font-family:sans-serif;fill:#000000;fill-opacity:1;stroke:none;stroke-width:0.264583"
       x="38.148106"
       y="193.40775"
       id="text916"><tspan
         sodipodi:role="line"
         id="tspan914"
         x="38.148106"
         y="193.40775"
         style="stroke-width:0.264583">domain</tspan></text>
    <text
       xml:space="preserve"
       style="font-style:normal;font-weight:normal;font-size:10.5833px;line-height:1.25;font-family:sans-serif;fill:#000000;fill-opacity:1;stroke:none;stroke-width:0.264583"
       x="94.7257"
       y="194.95038"
       id="text920"><tspan
         sodipodi:role="line"
         id="tspan918"
         x="94.7257"
         y="194.95038"
         style="stroke-width:0.264583">codomain</tspan></text>
    <text
       xml:space="preserve"
       style="font-style:normal;font-weight:normal;font-size:10.5833px;line-height:1.25;font-family:sans-serif;fill:#000000;fill-opacity:1;stroke:none;stroke-width:0.264583"
       x="26.419764"
       y="70.392212"
       id="text924"><tspan
         sodipodi:role="line"
         id="tspan922"
         x="26.419764"
         y="70.392212"
         style="stroke-width:0.264583">A relation not a function</tspan><tspan
         sodipodi:role="line"
         x="26.419764"
         y="83.621338"
         style="stroke-width:0.264583"
         id="tspan3710" /></text>
    <path
       style="fill:#000000;fill-opacity:1;fill-rule:nonzero;stroke:none;stroke-width:0.264583"
       id="path3712"
       d="m 47.714688,115.13924 c 3.791532,-1.5262 7.631954,-2.92883 11.382065,-4.55876 1.48604,-0.64589 2.95375,-1.33316 4.430628,-1.99973 8.476567,-3.97526 16.981506,-8.01275 25.770154,-11.263453 1.510541,-0.558713 3.042754,-1.056997 4.564129,-1.585497 4.807077,-1.565111 9.720066,-2.803245 14.693226,-3.710792 1.99623,-0.364294 3.12287,-0.507074 5.0883,-0.787204 2.33896,-0.25222 4.79373,-0.65495 7.12028,-0.08426 1.73997,0.403735 2.31093,-2.056953 0.57097,-2.460689 v 0 c -0.23641,-0.0528 -0.47039,-0.117959 -0.70923,-0.158382 -2.42702,-0.410763 -4.92081,-0.08104 -7.33878,0.202589 -2.02857,0.289666 -3.15811,0.432591 -5.22161,0.809873 -5.08822,0.930318 -10.114603,2.199344 -15.032532,3.802835 -1.55162,0.539666 -3.114191,1.048825 -4.654862,1.618996 -8.837899,3.270742 -17.365869,7.315494 -25.889506,11.313694 -1.453123,0.65629 -2.897142,1.33313 -4.359373,1.96887 -3.754162,1.63222 -7.599854,3.034 -11.394799,4.56409 -1.646018,0.69362 -0.665078,3.02144 0.98094,2.32782 z" />
    <path
       style="fill:#000000;fill-opacity:1;fill-rule:nonzero;stroke:none;stroke-width:0.264583"
       id="path3714"
       d="m 46.982567,116.39633 c 1.843511,-1.16375 3.406273,-2.68873 4.927809,-4.23348 0.388872,-0.41712 0.785035,-0.82755 1.166614,-1.25135 0.39937,-0.44356 0.776576,-0.90675 1.175896,-1.35036 0.725522,-0.80598 1.820606,-1.95379 2.586889,-2.70722 1.230345,-1.20969 1.52794,-1.43901 2.816524,-2.57006 1.70973,-1.46666 3.505071,-2.83528 5.4224,-4.02053 0.948389,-0.586273 1.521299,-0.88236 2.492304,-1.412204 1.369097,-0.679995 2.754312,-1.371973 4.216863,-1.83406 0.79072,-0.249827 1.022027,-0.26403 1.844638,-0.412766 3.012056,-0.461073 5.991359,0.261927 8.897286,0.990735 2.540408,0.721651 5.070457,1.500159 7.515849,2.503285 1.550594,0.63606 1.793021,0.77684 3.28966,1.49064 2.541508,1.24729 4.929653,2.77106 7.291361,4.32409 2.09742,1.37711 4.28393,2.60762 6.46767,3.84 1.32406,0.72865 2.61386,1.51689 3.95852,2.20752 0.16684,0.0831 0.33368,0.16616 0.50051,0.24924 1.59905,0.79594 2.72469,-1.46546 1.12563,-2.26141 v 0 c -0.15776,-0.0785 -0.31554,-0.15699 -0.4733,-0.23549 -1.31556,-0.67371 -2.57357,-1.45039 -3.86986,-2.15978 -2.13397,-1.20426 -4.27138,-2.40544 -6.32128,-3.75071 -2.458264,-1.61642 -4.946342,-3.19857 -7.593028,-4.494057 -1.563579,-0.743767 -1.842288,-0.902716 -3.458958,-1.56382 -2.545073,-1.040754 -5.176137,-1.853422 -7.820181,-2.600163 -0.681014,-0.169704 -1.358173,-0.355706 -2.043044,-0.509109 -2.599807,-0.582329 -5.274972,-0.932627 -7.927753,-0.514625 -1.035902,0.196305 -1.24927,0.203211 -2.243516,0.521184 -1.58338,0.506386 -3.085832,1.251135 -4.568036,1.992419 -1.052158,0.575325 -1.626021,0.871217 -2.656949,1.510432 -2.019469,1.252148 -3.912242,2.694819 -5.714092,4.241519 -1.357752,1.19406 -1.657641,1.42431 -2.953488,2.69979 -0.813046,0.80026 -1.92019,1.96371 -2.688307,2.81704 -0.380132,0.4223 -0.73841,0.86394 -1.118333,1.28643 -0.366138,0.40716 -0.746347,0.80144 -1.119521,1.20216 -0.867455,0.88351 -1.174416,1.22855 -2.080519,2.03203 -0.71936,0.63789 -1.484254,1.20122 -2.267331,1.75558 -0.150701,0.10668 -0.300075,0.21524 -0.450112,0.32286 -1.339426,1.18171 0.331759,3.07594 1.671185,1.89424 z" />
    <path
       style="fill:#000000;fill-opacity:1;fill-rule:nonzero;stroke:none;stroke-width:0.264583"
       id="path3716"
       d="m 53.694173,96.812054 c 1.844265,-1.473584 3.819112,-2.806473 5.95952,-3.814903 0.613262,-0.28893 1.250037,-0.525065 1.875055,-0.787598 1.737275,-0.559835 2.130364,-0.771999 3.945509,-1.016712 2.208918,-0.297796 4.46075,-0.196003 6.665041,0.07715 0.812105,0.100634 1.617446,0.249859 2.426169,0.374788 5.176713,0.888267 10.232763,2.332977 15.285455,3.741967 3.963514,1.100328 7.856905,2.431532 11.725228,3.825129 3.70106,1.297045 7.37541,2.667915 11.08174,3.949985 1.86439,0.70662 3.85314,1.13802 5.6089,2.10631 0.98585,0.78218 1.55263,1.97315 2.15287,3.05321 0.86597,1.62585 1.63112,3.30471 2.35867,4.99647 0.73061,1.73682 1.40654,3.49554 2.06902,5.25939 0.46986,1.32398 0.96727,2.63736 1.46773,3.94997 0.24519,0.6126 0.45259,1.23861 0.62251,1.87587 0.46509,1.72458 2.90402,1.06686 2.43894,-0.65773 v 0 c -0.19542,-0.71829 -0.42349,-1.42676 -0.70113,-2.11807 -0.49899,-1.30873 -0.99478,-2.61826 -1.46332,-3.93831 -0.67652,-1.80081 -1.36711,-3.59631 -2.11334,-5.36947 -0.76186,-1.76999 -1.56299,-3.52656 -2.47179,-5.22648 -0.8372,-1.50251 -1.66622,-3.09004 -3.15574,-4.04529 -0.20864,-0.1118 -0.41309,-0.23178 -0.62591,-0.33538 -1.71092,-0.83293 -3.59014,-1.26174 -5.36168,-1.93778 -3.69626,-1.278379 -7.36035,-2.646108 -11.0514,-3.939275 -3.92691,-1.414317 -7.879308,-2.765044 -11.902782,-3.881779 -5.149739,-1.436002 -10.303663,-2.905524 -15.580802,-3.80557 -2.079312,-0.317114 -3.02402,-0.516417 -5.11974,-0.619165 -3.164369,-0.155141 -6.318181,0.196257 -9.28366,1.354039 -0.689915,0.293291 -1.392592,0.558213 -2.069746,0.879872 -2.3432,1.113057 -4.513289,2.576875 -6.518105,4.215093 -1.297027,1.228096 0.439761,3.062367 1.736788,1.834272 z" />
    <path
       style="fill:#000000;fill-opacity:1;fill-rule:nonzero;stroke:none;stroke-width:0.264583"
       id="path3718"
       d="m 48.729987,97.521883 c -0.665396,0.253352 -1.322118,0.526217 -1.993038,0.765024 -1.650775,0.625666 -3.31116,1.223407 -4.951137,1.877263 -1.871837,0.73694 -3.643212,1.68692 -5.267629,2.87076 -0.959446,0.73542 -1.842879,1.56404 -2.58572,2.52057 -0.58103,0.74817 -0.796634,1.13243 -1.302131,1.93248 -0.804124,1.31715 -1.454888,2.71878 -1.901505,4.19713 -0.277281,0.91784 -0.314169,1.2171 -0.499861,2.14747 -0.209519,1.24009 -0.355288,2.49599 -0.202838,3.75197 0.08135,0.67021 0.186468,1.02091 0.344289,1.66579 0.41601,1.22174 0.933704,2.46557 1.787194,3.45584 0.202102,0.23449 0.433234,0.44231 0.649851,0.66346 0.275281,0.21069 0.537139,0.44018 0.825842,0.63207 2.05351,1.3649 4.486171,2.06821 6.824818,2.75528 2.298229,0.62659 4.600284,1.25805 6.944895,1.69066 1.433795,0.26455 1.837147,0.29436 3.269313,0.47356 2.199084,0.26297 4.424857,0.23833 6.625331,5.3e-4 1.396047,-0.15081 2.562979,-0.36644 3.949541,-0.59764 3.334321,-0.57605 6.555486,-1.62696 9.822127,-2.47944 0.558069,-0.14564 1.120918,-0.27231 1.681379,-0.40847 2.034789,-0.44505 4.104209,-0.75453 6.189906,-0.78068 1.371719,-0.0172 1.71768,0.0319 3.093257,0.12041 3.300574,0.33943 6.539452,1.10874 9.725961,2.01215 1.896608,0.53882 3.762127,1.20309 5.541555,2.05603 0.969153,0.46454 1.405393,0.72924 2.342828,1.25526 2.249425,1.33623 4.443715,2.76159 6.591085,4.25555 0.68798,0.47067 1.35753,0.97771 1.90905,1.60771 0.189,0.21588 0.41989,0.53762 0.59045,0.76804 0.46022,0.69098 0.81992,1.44233 1.15974,2.19795 0.16296,0.3363 0.28073,0.6905 0.42913,1.03291 0.72327,1.63321 3.03298,0.61036 2.30972,-1.02286 v 0 c -0.15907,-0.34319 -0.25972,-0.712 -0.43603,-1.04831 -0.41598,-0.92065 -0.85926,-1.83463 -1.43582,-2.66744 -0.28223,-0.37782 -0.47706,-0.65421 -0.79714,-1.01199 -0.66848,-0.74722 -1.46213,-1.36514 -2.28659,-1.9297 -2.21469,-1.54041 -4.47773,-3.01037 -6.79908,-4.38572 -1.02949,-0.57574 -1.474768,-0.84657 -2.542605,-1.35581 -1.892199,-0.90239 -3.873291,-1.60931 -5.888214,-2.18216 -3.359383,-0.9497 -6.773839,-1.7583 -10.254504,-2.10263 -1.471213,-0.0917 -1.886879,-0.14666 -3.355338,-0.12337 -2.252424,0.0357 -4.487579,0.36524 -6.684631,0.85022 -0.586894,0.14305 -1.176184,0.27659 -1.760678,0.42914 -3.180622,0.83012 -6.316435,1.85498 -9.561721,2.42166 -1.258835,0.21064 -2.464456,0.4316 -3.73289,0.57102 -2.030066,0.22313 -4.084153,0.25441 -6.113595,0.0109 -1.338617,-0.16592 -1.736114,-0.19579 -3.07595,-0.44182 -2.275758,-0.4179 -4.509286,-1.03327 -6.740017,-1.63981 -2.057543,-0.60149 -4.189087,-1.20558 -6.023877,-2.35519 -0.194305,-0.12175 -0.372306,-0.26776 -0.558462,-0.40164 -0.135871,-0.12843 -0.282432,-0.24642 -0.407614,-0.38529 -0.649655,-0.7207 -1.023795,-1.65414 -1.356593,-2.54915 -0.114731,-0.45388 -0.213582,-0.7919 -0.277744,-1.25664 -0.141512,-1.02499 6.1e-5,-2.05009 0.162965,-3.06349 0.151508,-0.77866 0.187608,-1.06302 0.415187,-1.82918 0.38313,-1.28984 0.945017,-2.51109 1.645811,-3.65887 0.426697,-0.68111 0.61821,-1.02255 1.101429,-1.65678 0.610582,-0.8014 1.345263,-1.4893 2.140982,-2.10373 1.447009,-1.06589 3.040666,-1.89968 4.711187,-2.56253 1.610367,-0.64291 3.241738,-1.22815 4.862541,-1.84383 0.667901,-0.23797 1.323398,-0.50539 1.984198,-0.76189 1.684893,-0.592986 0.84628,-2.975784 -0.83861,-2.382797 z"
       inkscape:export-xdpi="96"
       inkscape:export-ydpi="96" />
    <circle
       id="path3720"
       style="fill:#000000;stroke:#000000;stroke-width:0.264583"
       cx="104.33931"
       cy="128.86969"
       r="0.02225619" />
  </g>
</svg>
